<?xml version="1.0" encoding="utf-8"?>
<!-- Generator: Adobe Illustrator 21.0.0, SVG Export Plug-In . SVG Version: 6.00 Build 0)  -->
<svg version="1.1" id="Layer_1" xmlns="http://www.w3.org/2000/svg" xmlns:xlink="http://www.w3.org/1999/xlink" x="0px" y="0px"
	 viewBox="0 0 36 36" style="enable-background:new 0 0 36 36;" xml:space="preserve">
<style type="text/css">
	.st0{fill:#F18E00;}
</style>
<path class="st0" d="M10.9,1.7c-0.3,0.2-0.6,0.5-0.7,0.8C8.6,7.7,9.5,13.1,11.8,18l1.7,3.5c0.5,1.1,1.4,1.8,2.6,1.2
	c0.6-0.3,1.3,0,1.5,0.5l4.7,9.8c0.5,1.1,1.9,1.6,3.1,1.1c1.1-0.5,1.6-1.9,1.1-3.1L12.7,2.4C12.4,1.7,11.6,1.4,10.9,1.7z M15.6,21.7
	c-0.6,0.3-0.8-0.1-1-0.7l-1.7-3.5c-2.2-4.6-3.1-9.7-1.6-14.6c0-0.1,0.1-0.1,0.1-0.1c0.1-0.1,0.2,0,0.3,0.1l8.8,18.4l-2.1,1
	C17.6,21.5,16.5,21.2,15.6,21.7L15.6,21.7z M18.9,23.3l2.1-1l0.5,1l-2.1,1L18.9,23.3z M24.8,33.1c-0.6,0.3-1.3,0-1.5-0.5l-3.4-7.2
	l2.1-1l3.4,7.2C25.6,32.2,25.4,32.9,24.8,33.1z"/>
</svg>
