<?xml version="1.0" encoding="utf-8"?>
<!-- Generator: Adobe Illustrator 21.0.0, SVG Export Plug-In . SVG Version: 6.00 Build 0)  -->
<svg version="1.1" id="Layer_1" xmlns="http://www.w3.org/2000/svg" xmlns:xlink="http://www.w3.org/1999/xlink" x="0px" y="0px"
	 viewBox="0 0 36 36" style="enable-background:new 0 0 36 36;" xml:space="preserve">
<style type="text/css">
	.st0{fill:#F18E00;}
</style>
<g>
	<path class="st0" d="M23.6,20.2c-0.1-0.1-0.2-0.2-0.3-0.2c-0.4-0.3-1-0.3-1.4-0.2v-1.3c1.7-1.2,2.9-3.2,2.9-5.5V9.3l1.6-2
		c0.9-1.1,1-2.5,0.4-3.7s-1.8-2-3.2-2h-8.1c-2.3,0-4.2,1.9-4.2,4.2V9v4c0,2.3,1.1,4.3,2.9,5.5v1.3c-0.5-0.1-1,0-1.4,0.2
		c-0.1,0.1-0.2,0.2-0.3,0.2c-3.8,0.3-6.9,3.5-6.9,7.3v5.9c0,0.5,0.4,1,1,1h23c0.5,0,1-0.4,1-1v-5.9C30.5,23.7,27.4,20.4,23.6,20.2
		L23.6,20.2z M13.3,21.1l4.3,1.9l-4.3,1.9c0,0,0,0-0.1,0l0,0L13.3,21.1C13.2,21.1,13.2,21.1,13.3,21.1L13.3,21.1L13.3,21.1z
		 M22.8,20.8L22.8,20.8v4.3l0,0c0,0,0,0-0.1,0l-4.2-2.2L22.8,20.8L22.8,20.8z M12.9,5.6c0-1.4,1-2.5,2.3-2.5h8.5
		c0.7,0,1.2,0.4,1.5,1S25.4,5.5,25,6l-1.6,2.1h-2.5c-1.5,0-2.9-0.5-3.5-1.9c-0.2-0.4-0.5-0.6-0.9-0.6s-0.7,0.2-0.9,0.6
		C15,7.4,14.1,7.8,12.9,8C12.9,8,12.9,5.6,12.9,5.6z M12.8,12.9V9.6c1.5-0.2,2.8-0.9,3.8-1.9c1.1,1.3,2.7,2,4.5,2h2.1V13
		c0,2.9-2.3,5.2-5.2,5.2S12.8,15.8,12.8,12.9L12.8,12.9z M18,19.7c0.7,0,1.3-0.1,1.9-0.3v1.3L18,21.8l-1.9-1.1v-1.3
		C16.7,19.6,17.3,19.7,18,19.7z M24.5,23.7V22c2.5,0.5,4.5,2.8,4.5,5.6v5.2h-2h-2H11H9H7v-5.2c0-2.7,1.9-5,4.5-5.6v1.7
		c0,1.1,0.6,1.8,0.9,2.1h0.1c0.3,0.2,0.7,0.3,1,0.3s0.7-0.1,1-0.3l3.4-2l3.4,2c0.3,0.2,0.7,0.3,1,0.3c0.4,0,0.7-0.1,1-0.3h0.1
		C24,25.4,24.4,24.8,24.5,23.7z"/>
	<circle class="st0" cx="18" cy="26.8" r="1"/>
	<circle class="st0" cx="18" cy="30" r="1"/>
</g>
</svg>
