<?xml version="1.0" encoding="utf-8"?>
<!-- Generator: Adobe Illustrator 21.0.0, SVG Export Plug-In . SVG Version: 6.00 Build 0)  -->
<svg version="1.1" id="Layer_1" xmlns="http://www.w3.org/2000/svg" xmlns:xlink="http://www.w3.org/1999/xlink" x="0px" y="0px"
	 viewBox="0 0 36 36" style="enable-background:new 0 0 36 36;" xml:space="preserve">
<style type="text/css">
	.st0{fill:#F18E00;}
</style>
<g>
	<g>
		<path class="st0" d="M8.7,13.3L9,13.5c1.3,1,2.9,1.5,4.6,1.4c1.7,0,3.4-0.5,4.8-1.6c2.5-1.9,5.9-1.9,8.3,0
			c0.1,0.1,0.2,0.2,0.4,0.2l0.3,0.2l0.2-1.3l-0.2-0.2c-2.9-2.1-6.7-2.1-9.6,0c-1.2,0.9-2.7,1.4-4.2,1.4s-2.9-0.5-4.2-1.4
			c-0.3-0.2-0.6-0.4-0.8-0.5H8.5L8.7,13.3z"/>
		<path class="st0" d="M22.2,15.5C21.9,15.2,21.4,15,21,15c-0.4,0-0.9,0.2-1.2,0.5L18.2,17c-0.7,0.7-0.7,1.8,0,2.5l1.5,1.5
			c0.3,0.3,0.8,0.5,1.2,0.5c0.5,0,0.9-0.2,1.2-0.5l1.5-1.5c0.7-0.7,0.7-1.8,0-2.5L22.2,15.5z M22.9,18.8L22.9,18.8L22.9,18.8
			l-1.5,1.5c-0.2,0.1-0.3,0.2-0.5,0.2s-0.4-0.1-0.5-0.2l-1.5-1.5c-0.1-0.1-0.2-0.3-0.2-0.5s0.1-0.4,0.2-0.5l1.5-1.5
			c0.3-0.3,0.8-0.3,1.1,0l1.5,1.5C23.2,18,23.2,18.5,22.9,18.8z"/>
		<path class="st0" d="M16.6,23.2h-2.1c-1,0-1.8,0.8-1.8,1.8v2.1c0,1,0.8,1.8,1.8,1.8h2.1c1,0,1.8-0.8,1.8-1.8V25
			C18.4,24,17.6,23.2,16.6,23.2z M17.4,27.2c0,0.4-0.4,0.8-0.8,0.8h-2.1c-0.4,0-0.8-0.4-0.8-0.8V25c0-0.4,0.4-0.8,0.8-0.8h2.1
			c0.4,0,0.8,0.4,0.8,0.8V27.2z"/>
	</g>
	<g>
		<g>
			<path class="st0" d="M28.5,4.1c0-0.5,0-1.8-10.5-1.8S7.5,3.5,7.5,4.1c0,1-0.2,24.3,4.3,28.8c0.6,0.6,1.2,0.9,1.9,0.9h8.6
				c0.7,0,1.3-0.3,1.9-0.9C28.7,28.3,28.5,5,28.5,4.1z M9,13.8C8.8,10,8.7,6.5,8.8,4.3c1.9-1,16.6-1,18.5,0c0,2.3,0,5.7-0.2,9.5
				L27,15.5c-0.5,7-1.5,14.4-3.6,16.5c-0.3,0.3-0.7,0.5-1,0.5h-8.6c-0.4,0-0.7-0.2-1-0.5c-2.1-2.1-3.1-9.5-3.6-16.5L9,13.8z"/>
		</g>
	</g>
</g>
</svg>
