<?xml version="1.0" encoding="utf-8"?>
<!-- Generator: Adobe Illustrator 21.0.0, SVG Export Plug-In . SVG Version: 6.00 Build 0)  -->
<svg version="1.1" id="Layer_1" xmlns="http://www.w3.org/2000/svg" xmlns:xlink="http://www.w3.org/1999/xlink" x="0px" y="0px"
	 viewBox="0 0 36 36" style="enable-background:new 0 0 36 36;" xml:space="preserve">
<style type="text/css">
	.st0{fill:#F18E00;}
</style>
<g>
	<path class="st0" d="M30.3,4.2c-0.1,0.3-0.1,0.5-0.2,0.8c-0.2,1-0.5,2-0.7,3c0,0.1-0.1,0.2-0.2,0.1C28,7.8,26.2,7.3,25,7
		c-1.4-0.4-2.9-0.8-4.3-1.1c-0.3-0.1-0.6-0.2-0.9-0.2c-0.9,0-1.5,0.6-1.7,1.4c-0.2,0.7-0.4,1.5-0.6,2.2c-0.3,1-0.6,2-0.9,3
		c-0.2,0.7-0.4,1.4-0.6,2.1c-0.3,1-0.6,2.1-0.9,3.1c-0.3,1-0.6,2.1-0.9,3.1c-0.3,1.2-0.7,2.4-1,3.6c-0.3,1-0.6,2.1-0.9,3.1
		c-0.3,1.2-0.7,2.4-1,3.6c-0.2,0.9-0.5,1.7-0.7,2.6c-0.1,0.4-0.2,0.7-0.3,1.1c0,0.1-0.1,0.1-0.2,0.1c-1.4-0.4-2.8-0.8-4.2-1.2
		c-0.1,0-0.2-0.1-0.1-0.2c0.2-0.7,0.4-1.5,0.7-2.2c0.3-0.9,0.5-1.8,0.8-2.8c0.3-0.9,0.5-1.7,0.8-2.6c0.3-1,0.6-2,0.9-3
		c0.2-0.8,0.5-1.6,0.7-2.4c0.3-0.9,0.5-1.7,0.8-2.6c0.3-0.8,0.5-1.7,0.8-2.5c0.3-1,0.6-1.9,0.9-2.9c0.3-1,0.6-2,0.9-3
		c0.3-1,0.6-1.9,0.9-2.9c0-0.6,0.2-1.4,0.5-2.1c0.4-0.9,1-1.6,1.8-2.2c0.9-0.7,2-1,3.1-1c0.5,0,1,0.1,1.4,0.3c1,0.3,2.1,0.6,3.1,0.9
		c0.8,0.2,1.7,0.5,2.5,0.7c0.9,0.3,2.5,0.7,3.3,1C30,4.1,30.1,4.1,30.3,4.2L30.3,4.2z M17,7.5c0-0.1-0.1-0.1-0.1-0.1
		c-0.7-0.2-1.4-0.4-2.2-0.6c-0.1,0-0.2,0-0.2,0.1c-0.2,0.7-0.4,1.4-0.6,2.1c-0.2,0.8-0.5,1.7-0.7,2.5c-0.3,1-0.6,1.9-0.9,2.9
		c-0.3,1-0.6,2-0.9,3c-0.3,1.2-0.7,2.3-1,3.5c-0.3,1-0.6,1.9-0.9,2.9c-0.3,1-0.6,2-0.9,3c-0.3,0.9-0.6,1.9-0.9,2.8
		c-0.3,1.1-0.6,2.1-1,3.2c0,0.1,0,0.2,0.1,0.2c0.9,0.2,1.7,0.5,2.6,0.8c0.1,0,0.1,0,0.1-0.1c0.1-0.3,0.2-0.6,0.2-0.9
		c0.3-1,0.6-2.1,0.9-3.1c0.2-0.7,0.4-1.4,0.6-2.1c0.2-0.8,0.5-1.7,0.7-2.5c0.3-1.2,0.7-2.4,1-3.6c0.4-1.5,0.9-3,1.3-4.6
		c0.4-1.5,0.8-3,1.3-4.5c0.4-1.4,0.8-2.9,1.2-4.3C16.9,7.9,17,7.7,17,7.5z M29.3,4.8C29.3,4.8,29.2,4.8,29.3,4.8
		c-1-0.3-2.6-0.8-3.5-1.1C25,3.5,24.2,3.2,23.3,3c-0.6-0.2-1.1-0.3-1.7-0.5c-0.1,0-0.2,0-0.2,0.1c-0.1,0.2-0.1,0.4-0.2,0.7
		c-0.2,0.5-0.3,1-0.5,1.5c0,0.1,0,0.1,0.1,0.2c0.7,0.2,1.4,0.4,2.2,0.6c1,0.3,2,0.6,3.1,0.8c0.6,0.2,1.9,0.5,2.4,0.7
		c0.1,0,0.2,0,0.2-0.1c0.1-0.6,0.3-1.2,0.5-1.9C29.2,5,29.3,4.9,29.3,4.8z M16.2,3.3c-0.6,0.7-1.1,1.5-1.3,2.4
		c-0.1,0.1,0,0.2,0.1,0.2c0.7,0.2,1.4,0.4,2.1,0.6c0.1,0,0.2,0,0.2-0.1c0.1-0.2,0.1-0.3,0.2-0.4c0.3-0.4,0.6-0.7,1-0.9
		c0.3-0.2,0.7-0.2,1.1-0.3c0.1,0,0.1-0.1,0.1-0.1c0.2-0.8,0.5-1.5,0.7-2.3c0-0.1,0-0.2-0.1-0.2c-0.5-0.1-1-0.2-1.5-0.2
		C17.8,2.2,16.9,2.6,16.2,3.3z"/>
</g>
</svg>
