<?xml version="1.0" encoding="utf-8"?>
<!-- Generator: Adobe Illustrator 21.0.0, SVG Export Plug-In . SVG Version: 6.00 Build 0)  -->
<svg version="1.1" id="Layer_1" xmlns="http://www.w3.org/2000/svg" xmlns:xlink="http://www.w3.org/1999/xlink" x="0px" y="0px"
	 viewBox="0 0 36 36" style="enable-background:new 0 0 36 36;" xml:space="preserve">
<style type="text/css">
	.st0{fill:#F18E00;}
</style>
<g>
	<path class="st0" d="M25.6,31.3H10.4c-0.4,0-0.7,0.3-0.7,0.7s0.3,0.7,0.7,0.7h15.1c0.4,0,0.7-0.3,0.7-0.7
		C26.2,31.6,25.9,31.3,25.6,31.3z"/>
	<path class="st0" d="M33.1,16.2H2.9c-0.4,0-0.7,0.3-0.7,0.7c0,8.7,7.1,15.8,15.8,15.8s15.8-7.1,15.8-15.8
		C33.8,16.5,33.5,16.2,33.1,16.2z M32.4,18.1c-0.7,7.4-7,13.1-14.4,13.1S4.3,25.4,3.6,18.1l-0.1-0.6h28.9V18.1z"/>
	<path class="st0" d="M18,26.2c-3.3,0-6.5-1.8-8.1-4.7c-0.1-0.2-0.2-0.3-0.4-0.3c-0.1,0-0.1,0-0.2,0c-0.1,0-0.2,0-0.3,0.1
		c-0.2,0.1-0.3,0.2-0.3,0.4c0,0.2,0,0.4,0.1,0.5c1.9,3.3,5.5,5.4,9.3,5.4c0.4,0,0.7-0.3,0.7-0.7C18.7,26.5,18.4,26.2,18,26.2z"/>
</g>
</svg>
