<?xml version="1.0" encoding="utf-8"?>
<!-- Generator: Adobe Illustrator 21.0.0, SVG Export Plug-In . SVG Version: 6.00 Build 0)  -->
<svg version="1.1" id="Layer_1" xmlns="http://www.w3.org/2000/svg" xmlns:xlink="http://www.w3.org/1999/xlink" x="0px" y="0px"
	 viewBox="0 0 36 36" style="enable-background:new 0 0 36 36;" xml:space="preserve">
<style type="text/css">
	.st0{fill:#F18E00;}
</style>
<path class="st0" d="M18.3,32.4c0.1,0,0.1,0,0.1,0c2-0.1,7.9-1.3,9.2-6.1c1-3.9,4.1-6.7,6.8-8.1c0.3-0.1,0.5-0.5,0.5-0.9
	c0-0.3-0.2-0.5-0.4-0.6l-1-0.4l0,0L28,14.1l0.3-0.3c0.5-0.5,1.5-1.3,2-1.6c0.1-0.1,0.2-0.3,0.3-0.5c0-0.2,0-0.4-0.1-0.6
	c-0.1-0.1-0.2-0.3-0.3-0.3L13.4,4.2c-0.1-0.1-0.3,0-0.4,0.1c-2.7,1.8-5.5,5.6-5.5,11.1c0,5.4-5.4,8.7-6,9c-0.2,0.1-0.3,0.2-0.3,0.4
	c-0.1,0.2-0.1,0.4,0,0.6c0,0.2,0.1,0.3,0.2,0.4s0.1,0.1,0.2,0.1l16.2,6.4v0.2L18.3,32.4L18.3,32.4z M32.6,17.6l-0.3,0.3
	c-2.4,1.9-5,4.3-5.7,8.1l0,0c-0.5,2.3-3.9,3.9-4.9,4.4l-0.9,0.4l0.8-0.8c2.8-2.8,3.8-4.9,3.8-8c0-2.3,0.6-4.7,1.6-6.5l0.1-0.1
	L32.6,17.6z M3.1,24.9l0.4-0.3c1.9-1.3,3.4-3.3,4.4-5.7L8,18.8l4.4,1.9l0.4-1.4l-4.4-1.8v-0.2c0.1-0.6,0.2-1.3,0.2-1.9
	c0-5.7,3.5-8.7,4.6-9.5h0.1h0.1l15.2,6L28.3,12c-2.5,2.2-4.1,5.9-4.2,9.9c0,5.5-4.8,8.4-5.8,8.9h-0.1h-0.1L3.1,24.9z"/>
</svg>
