<?xml version="1.0" encoding="utf-8"?>
<!-- Generator: Adobe Illustrator 21.0.0, SVG Export Plug-In . SVG Version: 6.00 Build 0)  -->
<svg version="1.1" id="Layer_1" xmlns="http://www.w3.org/2000/svg" xmlns:xlink="http://www.w3.org/1999/xlink" x="0px" y="0px"
	 viewBox="0 0 36 36" style="enable-background:new 0 0 36 36;" xml:space="preserve">
<style type="text/css">
	.st0{fill:#F18E00;}
</style>
<g>
	<path class="st0" d="M16.7,23.8c0.2-0.3,0.2-0.7,0-0.9c-0.3-0.2-0.7-0.2-0.9,0c-0.2,0.3-0.2,0.7,0,0.9C16,24.1,16.4,24.1,16.7,23.8
		z"/>
	<path class="st0" d="M13.6,8.7c0,3.9,3.2,7,7,7s7-3.2,7-7s-3.2-7-7-7S13.6,4.8,13.6,8.7z M26.4,8.7c0,3.2-2.6,5.8-5.8,5.8
		s-5.8-2.6-5.8-5.8s2.6-5.8,5.8-5.8S26.4,5.5,26.4,8.7z"/>
	<path class="st0" d="M9,34.2c0.2,0.3,0.7,0.3,0.9,0l3.1-3.1c0.5-0.5,0.7-1.3,0.5-2l0.7-0.6c0.4-0.3,0.8-0.5,1.3-0.5H24
		c1.5,0,2.9-0.6,4-1.6c0,0-0.3,0.4,5.8-6.9c0.9-1.1,0.8-2.7-0.3-3.6s-2.7-0.8-3.6,0.3L26.1,20c-0.5-0.6-1.2-1-2-1H17
		c-1-0.4-2.1-0.6-3.2-0.6c-3.1,0-5.8,1.4-7.2,4.1c-0.6-0.1-1.3,0-1.8,0.5l-3,3.1c-0.2,0.2-0.2,0.7,0,0.9L9,34.2z M13.8,19.7
		c1,0,1.9,0.2,2.8,0.6c0.1,0,0.2,0.1,0.3,0.1h7.3c0.7,0,1.3,0.6,1.3,1.3c0,0.7-0.6,1.3-1.3,1.3H19c-0.4,0-0.6,0.3-0.6,0.6
		c0,0.4,0.3,0.6,0.6,0.6h5.2c1.4,0,2.6-1.1,2.6-2.6c0-0.1,0-0.2,0-0.3C30.5,17.5,31,17,31,17c0.5-0.5,1.3-0.6,1.8-0.2
		c0.5,0.5,0.6,1.3,0.2,1.8l-5.7,6.9c-0.8,0.8-1.9,1.2-3.1,1.2h-8.5c-0.8,0-1.6,0.3-2.2,0.9L13,28.1l-5-5C8.8,20.9,11,19.7,13.8,19.7
		z M5.8,23.9c0.2-0.2,0.5-0.2,0.8-0.1c0.1,0.1-0.2-0.2,5.5,5.5c0.3,0.3,0.2,0.7,0,0.9l-2.6,2.6l-6.3-6.3L5.8,23.9z"/>
	<path class="st0" d="M19.9,4.8v0.8c-0.7,0.3-1.3,1-1.3,1.8c0,1.1,0.9,1.9,1.9,1.9c0.4,0,0.6,0.3,0.6,0.6s-0.3,0.6-0.6,0.6
		c-0.3,0-0.6-0.2-0.8-0.5c-0.2-0.3-0.6-0.3-0.9-0.1s-0.3,0.6-0.1,0.9c0.3,0.4,0.7,0.7,1.2,0.8v0.7c0,0.4,0.3,0.6,0.6,0.6
		c0.4,0,0.6-0.3,0.6-0.6v-0.8c0.7-0.3,1.3-1,1.3-1.8c0-1.1-0.9-1.9-1.9-1.9c-0.4,0-0.6-0.3-0.6-0.6c0-0.4,0.3-0.6,0.6-0.6
		c0.2,0,0.5,0.1,0.7,0.3c0.3,0.2,0.7,0.2,0.9,0c0.2-0.3,0.2-0.7,0-0.9c-0.3-0.3-0.6-0.5-0.9-0.6V4.8c0-0.4-0.3-0.6-0.6-0.6
		C20.2,4.2,19.9,4.5,19.9,4.8z"/>
</g>
</svg>
