<?xml version="1.0" encoding="utf-8"?>
<!-- Generator: Adobe Illustrator 21.0.0, SVG Export Plug-In . SVG Version: 6.00 Build 0)  -->
<svg version="1.1" id="Layer_1" xmlns="http://www.w3.org/2000/svg" xmlns:xlink="http://www.w3.org/1999/xlink" x="0px" y="0px"
	 viewBox="0 0 36 36" style="enable-background:new 0 0 36 36;" xml:space="preserve">
<style type="text/css">
	.st0{fill:#F18E00;}
</style>
<g>
	<g>
		<path class="st0" d="M28.5,4.1c0-0.5,0-1.8-10.5-1.8S7.5,3.5,7.5,4.1c0,1-0.2,24.3,4.3,28.8c0.6,0.6,1.2,0.9,1.9,0.9h8.6
			c0.7,0,1.3-0.3,1.9-0.9C28.7,28.3,28.5,5,28.5,4.1z M9,13.8C8.8,10,8.7,6.5,8.8,4.3c1.9-1,16.6-1,18.5,0c0,2.3,0,5.7-0.2,9.5
			L27,15.5c-0.5,7-1.5,14.4-3.6,16.5c-0.3,0.3-0.7,0.5-1,0.5h-8.6c-0.4,0-0.7-0.2-1-0.5c-2.1-2.1-3.1-9.5-3.6-16.5L9,13.8z"/>
	</g>
	<rect x="10.9" y="28.4" class="st0" width="14.2" height="1.3"/>
	<path class="st0" d="M18,6.5c0-0.3-0.2-0.6-0.6-0.6c-2.1-0.3-4.2-0.1-6.1,0.2c-0.2,0-0.3,0.1-0.4,0.2c-0.1,0.1-0.2,0.3-0.1,0.4
		l0.2,2c0,0.3,0.3,0.5,0.6,0.5c0.2,0,0.2-0.1,0.3-0.2C12,8.9,12,8.7,12,8.5l-0.1-1.3c1.8-0.4,3.8-0.5,5.6-0.2C17.8,7,18,6.8,18,6.5z
		"/>
</g>
</svg>
