<?xml version="1.0" encoding="utf-8"?>
<!-- Generator: Adobe Illustrator 21.0.0, SVG Export Plug-In . SVG Version: 6.00 Build 0)  -->
<svg version="1.1" id="Layer_1" xmlns="http://www.w3.org/2000/svg" xmlns:xlink="http://www.w3.org/1999/xlink" x="0px" y="0px"
	 viewBox="0 0 36 36" style="enable-background:new 0 0 36 36;" xml:space="preserve">
<style type="text/css">
	.st0{fill:#F18E00;}
</style>
<g>
	<g>
		<g>
			<path class="st0" d="M18.1,6.2c-1.9-3.5-5.5-5.1-8.1-3.8s-3.2,5.3-1.3,8.8c1.4,2.6,4.1,4.4,6.4,4.4l7.9,17c0.4,0.7,1,1.2,1.7,1.4
				s1.5,0.1,2.2-0.2l0,0c0.7-0.4,1.2-1,1.4-1.7c0.2-0.7,0.1-1.5-0.2-2.2L18.4,14C19.6,12,19.5,8.8,18.1,6.2z M17.1,13.5
				c-0.2,0.2-0.2,0.5-0.1,0.7l10,16.2c0.2,0.4,0.3,0.8,0.1,1.3c-0.1,0.4-0.4,0.8-0.8,1l0,0c-0.4,0.2-0.8,0.3-1.3,0.1
				c-0.4-0.1-0.8-0.4-1-0.8l-8-17.2c-0.1-0.2-0.4-0.4-0.6-0.3c-1.9,0.2-4.4-1.4-5.6-3.8c-1.5-2.9-1.2-6.1,0.9-7.2s4.9,0.4,6.5,3.3
				C18.3,9.1,18.4,12,17.1,13.5z"/>
		</g>
	</g>
	<g>
		<g>
			<rect x="16.5" y="16" transform="matrix(0.8815 -0.4722 0.4722 0.8815 -5.7242 10.3284)" class="st0" width="2.4" height="1.2"/>
		</g>
	</g>
	<g>
		<g>
			<path class="st0" d="M11.6,6.1l-0.5-0.9C9.8,5.8,9.7,8,10.8,10.1s3,3.2,4.3,2.5l-0.5-0.9c-0.7,0.4-2-0.4-2.9-2
				C10.8,8,11,6.4,11.6,6.1z"/>
		</g>
	</g>
</g>
</svg>
