<?xml version="1.0" encoding="utf-8"?>
<!-- Generator: Adobe Illustrator 21.0.0, SVG Export Plug-In . SVG Version: 6.00 Build 0)  -->
<svg version="1.1" id="Layer_1" xmlns="http://www.w3.org/2000/svg" xmlns:xlink="http://www.w3.org/1999/xlink" x="0px" y="0px"
	 viewBox="0 0 36 36" style="enable-background:new 0 0 36 36;" xml:space="preserve">
<style type="text/css">
	.st0{fill:#F18E00;}
</style>
<g>
	<path class="st0" d="M4.1,31.2c0,1,0.8,1.8,1.9,1.8h17.3c1,0,1.9-0.8,1.9-1.8v-5.4h5c1,0,1.9-0.8,1.9-1.8V7.1
		c0-2.3-1.9-4.1-4.2-4.1H8.4C6,3,4.1,4.9,4.1,7.3V31.2z M25.1,7.1c0-1.5,1.2-2.7,2.7-2.7s2.7,1.2,2.7,2.7v13.4h-5.4
		C25.1,20.5,25.1,7.1,25.1,7.1z M25.1,22h5.4v1.9c0,0.2-0.2,0.4-0.4,0.4h-5V22z M5.5,7.3c0-1.6,1.3-2.8,2.8-2.8h16.3l-0.1,0.2
		c0,0,0,0,0,0.1l0,0c-0.1,0.2-0.2,0.3-0.3,0.5l0,0C24.1,5.5,24,5.6,24,5.8v0.1c-0.1,0.2-0.1,0.4-0.1,0.6v0.1c0,0.2-0.1,0.4-0.1,0.6
		v20.7H5.5V7.3z M5.5,29.3h18.1v1.9c0,0.2-0.2,0.4-0.4,0.4H5.9c-0.2,0-0.4-0.2-0.4-0.4V29.3z"/>
	<path class="st0" d="M19.2,17.2c-0.9-1.9-0.3-2.8-0.2-3c0.3-0.4,0.4-1,0.1-1.4c-0.1-0.2-0.4-0.3-0.6-0.3l0,0
		c-0.2,0-0.4,0.1-0.5,0.2c-0.2,0.2-1.8,2.1-0.2,5.4c0.9,1.8,0.4,2.7,0.2,3c-0.2,0.2-0.3,0.5-0.3,0.7c0,0.3,0.1,0.5,0.2,0.7
		c0.3,0.4,0.8,0.4,1.2,0.1C19.1,22.5,20.8,20.6,19.2,17.2z"/>
	<path class="st0" d="M12,15.7c-0.9-1.9-0.3-2.8-0.2-3c0.3-0.4,0.4-1,0.1-1.4c-0.1-0.2-0.4-0.3-0.6-0.3l0,0c-0.2,0-0.4,0.1-0.5,0.2
		c-0.2,0.2-1.8,2.1-0.2,5.4c0.9,1.8,0.4,2.7,0.2,3c-0.2,0.2-0.3,0.5-0.3,0.7c0,0.3,0.1,0.5,0.2,0.7c0.3,0.4,0.8,0.4,1.2,0.1
		C11.9,21,13.7,19.1,12,15.7z"/>
</g>
</svg>
