<?xml version="1.0" encoding="utf-8"?>
<!-- Generator: Adobe Illustrator 21.0.0, SVG Export Plug-In . SVG Version: 6.00 Build 0)  -->
<svg version="1.1" id="Layer_1" xmlns="http://www.w3.org/2000/svg" xmlns:xlink="http://www.w3.org/1999/xlink" x="0px" y="0px"
	 viewBox="0 0 36 36" style="enable-background:new 0 0 36 36;" xml:space="preserve">
<style type="text/css">
	.st0{fill:#F18E00;}
</style>
<g>
	<g>
		<path class="st0" d="M18.2,30.3c-1.9,0-3.4-1.5-3.4-3.4s1.5-3.4,3.4-3.4s3.4,1.5,3.4,3.4S20.1,30.3,18.2,30.3z M18.2,24.8
			c-1.1,0-2,0.9-2,2s0.9,2,2,2s2-0.9,2-2S19.3,24.8,18.2,24.8z"/>
		<path class="st0" d="M19.2,25c-0.1,0-0.2,0-0.2,0c-0.4-0.1-0.5-0.5-0.4-0.9l8.6-22c0.1-0.4,0.5-0.5,0.9-0.4s0.5,0.5,0.4,0.9
			l-8.6,22C19.7,24.9,19.5,25,19.2,25L19.2,25z"/>
	</g>
	<path class="st0" d="M16.9,34.4h-6c-1.9,0-3.4-1.5-3.4-3.4V17.3c0-0.4,0.3-0.7,0.7-0.7c0.4,0,0.7,0.3,0.7,0.7V31c0,1.1,0.9,2,2,2h6
		H19h6c1.1,0,2-0.9,2-2V17.3c0-0.4,0.3-0.7,0.7-0.7s0.7,0.3,0.7,0.7V31c0,1.9-1.5,3.4-3.4,3.4h-6H16.9z"/>
</g>
</svg>
