<?xml version="1.0" encoding="utf-8"?>
<!-- Generator: Adobe Illustrator 21.0.0, SVG Export Plug-In . SVG Version: 6.00 Build 0)  -->
<svg version="1.1" id="Layer_1" xmlns="http://www.w3.org/2000/svg" xmlns:xlink="http://www.w3.org/1999/xlink" x="0px" y="0px"
	 viewBox="0 0 36 36" style="enable-background:new 0 0 36 36;" xml:space="preserve">
<style type="text/css">
	.st0{fill:#F18E00;}
</style>
<g>
	<path class="st0" d="M9.3,12.9c0,4.4,3.3,8.1,7.7,8.6h0.3v11.1h-4.2V34h9.8v-1.3h-4.2V21.6H19c4.4-0.5,7.7-4.2,7.7-8.6
		c0-0.4,0-0.7-0.1-1.1L25.4,2H10.6l-1.2,9.9C9.3,12.2,9.3,12.6,9.3,12.9z M10.9,10.9l0.9-7.6h12.4l0.9,7.6l0.2,2
		c0,4.1-3.3,7.4-7.3,7.4S10.7,17,10.7,13L10.9,10.9z"/>
	<path class="st0" d="M18.8,16.4c-2.4,0-4.4-2-4.4-4.5V11l-1,0.1l0,0c0,0.2,0,0.5,0,0.7c0,2.8,2.1,5.2,4.9,5.5l0.5,0.1l0.3-1.1h-0.3
		V16.4z"/>
</g>
</svg>
