<?xml version="1.0" encoding="utf-8"?>
<!-- Generator: Adobe Illustrator 21.0.0, SVG Export Plug-In . SVG Version: 6.00 Build 0)  -->
<svg version="1.1" id="Layer_1" xmlns="http://www.w3.org/2000/svg" xmlns:xlink="http://www.w3.org/1999/xlink" x="0px" y="0px"
	 viewBox="0 0 36 36" style="enable-background:new 0 0 36 36;" xml:space="preserve">
<style type="text/css">
	.st0{fill:#F18E00;}
</style>
<g>
	<g>
		<g>
			<rect x="11" y="3.6" transform="matrix(0.865 -0.5017 0.5017 0.865 -2.4788 6.8743)" class="st0" width="1.1" height="8.9"/>
		</g>
	</g>
	<g>
		<g>
			<rect x="13.4" y="2.3" transform="matrix(0.865 -0.5017 0.5017 0.865 -1.4831 7.9119)" class="st0" width="1.1" height="8.9"/>
		</g>
	</g>
	<g>
		<g>
			<path class="st0" d="M13.3,1.9l5.2,9c0.2,0.3,0.3,0.7,0.2,1.1l-0.6,2.4c0,0.1,0,0.3,0.1,0.4l10,16.2c0.5,0.8,0.2,1.9-0.7,2.4l0,0
				c-0.4,0.2-0.9,0.3-1.3,0.1c-0.4-0.1-0.8-0.4-1-0.8l-9-16.6c-0.1-0.1-0.2-0.2-0.3-0.3l-2.5-0.5c-0.4-0.1-0.6-0.4-0.8-0.7l-5.2-9
				L6.3,6l5.2,9c0.3,0.5,0.8,1,1.4,1.2l2.3,0.5l8.9,16.5c0.4,0.7,1,1.2,1.7,1.4s1.5,0.1,2.2-0.2h0.1l0,0c1.4-0.8,1.9-2.6,1.1-4
				l-9.9-16l0.6-2.2c0.1-0.6-0.1-1.3-0.4-1.8l-5.2-9L13.3,1.9z"/>
		</g>
	</g>
	<g>
		<g>
			<rect x="16.6" y="16.8" transform="matrix(0.865 -0.5017 0.5017 0.865 -6.2703 11.5589)" class="st0" width="3.5" height="1.2"/>
		</g>
	</g>
</g>
</svg>
