<?xml version="1.0" encoding="utf-8"?>
<!-- Generator: Adobe Illustrator 21.0.0, SVG Export Plug-In . SVG Version: 6.00 Build 0)  -->
<svg version="1.1" id="Layer_1" xmlns="http://www.w3.org/2000/svg" xmlns:xlink="http://www.w3.org/1999/xlink" x="0px" y="0px"
	 viewBox="0 0 36 36" style="enable-background:new 0 0 36 36;" xml:space="preserve">
<style type="text/css">
	.st0{fill:#F18E00;}
</style>
<g>
	<path class="st0" d="M22.3,4.4c-0.3-0.1-0.7,0.1-0.8,0.4c-0.1,0.3,0.1,0.7,0.4,0.8c5.8,1.7,9.8,7.1,9.8,13.2
		c0,7.6-6.2,13.7-13.7,13.7c-2.8,0-5.4-0.8-7.7-2.4l10.2-10.2c0.1-0.1,0.2-0.3,0.2-0.4s-0.1-0.3-0.2-0.4l-2.7-2.7
		c-0.2-0.2-0.6-0.2-0.9,0l-10.2,10c-1.6-2.3-2.4-4.9-2.4-7.7c0-5.6,3.7-12,10.1-13.2c0.3-0.1,0.6-0.4,0.5-0.7
		c-0.1-0.3-0.4-0.6-0.7-0.5C7.2,5.6,2.6,12.6,3,18.7c0.2,3.1,1,6.1,2.7,8.6l-2.6,2.6c-0.2,0.2-0.2,0.6,0,0.9L6,33.5
		c0.1,0.1,0.3,0.2,0.4,0.2c0.2,0,0.3-0.1,0.4-0.2L9.4,31c2.5,1.8,5.5,2.7,8.6,2.7c8.3,0,15-6.7,15-15C33,12.1,28.6,6.2,22.3,4.4
		L22.3,4.4z M17.3,17.6l1.9,1.9l-1.9,1.9l-1.9-1.9L17.3,17.6z M6.4,32.2l-1.9-1.9l10.1-10.1l1.9,1.9L6.4,32.2z"/>
	<path class="st0" d="M18,29c-1,0-2-0.2-3-0.5c-0.3-0.1-0.6,0.1-0.7,0.4s0.1,0.6,0.4,0.7c1.1,0.3,2.2,0.5,3.4,0.5
		c6.3,0,11.4-5.1,11.4-11.4c0-4.7-3-9-7.4-10.7c-0.3-0.1-0.6,0-0.8,0.3c-0.1,0.3,0,0.6,0.3,0.8c4,1.5,6.6,5.4,6.6,9.6
		C28.3,24.4,23.7,29,18,29z"/>
	<path class="st0" d="M13.4,9.4c0.3-0.1,0.5-0.5,0.3-0.8S13.3,8.2,13,8.3C8.6,10,6.2,15,6.6,18.7c0.1,1.1,0.2,2.3,0.5,3.4
		c0.1,0.3,0.3,0.4,0.6,0.4c0.1,0,0.1,0,0.2,0c0.3-0.1,0.5-0.4,0.4-0.7c-0.3-1-0.4-2-0.5-3C7.6,15.5,9.2,11.5,13.4,9.4L13.4,9.4z"/>
	<path class="st0" d="M17.6,11c0.7,0.5,1.3,1.7,1.3,2.4c0,0.3,0.3,0.6,0.6,0.6c0.3,0,0.6-0.3,0.6-0.6c0-1.3-1.1-2.8-1.8-3.4
		c-0.7-0.5-1.1-0.9-1.1-1.6s0.4-1,1.1-1.6c0.7-0.5,1.9-2.7,1.9-4c0-0.3-0.3-0.6-0.6-0.6S19,2.6,19,2.9c0,0.7-0.7,2.5-1.4,3
		C16.9,6.5,16,7.1,16,8.5C16,9.8,16.9,10.5,17.6,11L17.6,11z"/>
</g>
</svg>
