<?xml version="1.0" encoding="utf-8"?>
<!-- Generator: Adobe Illustrator 21.0.0, SVG Export Plug-In . SVG Version: 6.00 Build 0)  -->
<svg version="1.1" id="Layer_1" xmlns="http://www.w3.org/2000/svg" xmlns:xlink="http://www.w3.org/1999/xlink" x="0px" y="0px"
	 viewBox="0 0 36 36" style="enable-background:new 0 0 36 36;" xml:space="preserve">
<style type="text/css">
	.st0{fill:#F18E00;}
</style>
<g>
	<path class="st0" d="M32.9,26.3l-2.5-8.4c-0.2-0.6-0.6-1.1-1.1-1.4s-1.2-0.4-1.8-0.2l-2.8,0.8l0.5-0.7c0.3-0.4,0.4-0.9,0.4-1.3
		l-0.4-8.8c0-0.6-0.3-1.2-0.7-1.6c-0.5-0.4-1-0.6-1.7-0.6L14,4.6c-0.6,0-1.2,0.3-1.6,0.7c-0.4,0.5-0.6,1-0.6,1.7l0.4,8.8
		c0,0.2,0,0.3,0.1,0.5l0.1,0.4l-6-0.6c-0.6-0.1-1.2,0.1-1.7,0.5s-0.8,0.9-0.8,1.5L3,26.8c-0.1,0.6,0.1,1.2,0.5,1.7s0.9,0.8,1.5,0.8
		l8.7,0.9c0.6,0.1,1.2-0.1,1.7-0.5s0.8-0.9,0.8-1.5l0.7-6.6l0,0l0.2-2.1c0-0.4,0-0.8-0.2-1.2l-0.2-0.4l6.9-0.3L19.1,19
		c-0.6,0.2-1.1,0.6-1.4,1.2L17.3,21l0.2,0.8l2.5,8.5c0.2,0.6,0.6,1.1,1.1,1.4s1.2,0.3,1.8,0.2l8.4-2.5
		C32.6,28.8,33.3,27.5,32.9,26.3z M15.1,28.1c0,0.3-0.2,0.6-0.4,0.8c-0.2,0.2-0.5,0.3-0.7,0.3h-0.1l-8.7-0.9c-0.3,0-0.6-0.2-0.8-0.4
		c-0.2-0.2-0.3-0.5-0.2-0.8l0.9-8.7c0-0.3,0.2-0.6,0.4-0.8c0.2-0.2,0.5-0.3,0.8-0.2l8.7,0.9c0.3,0,0.6,0.2,0.8,0.4
		c0.2,0.2,0.3,0.5,0.2,0.8L15.1,28.1z M23.3,16.4l-8.8,0.4l0,0c-0.6,0-1.1-0.5-1.1-1.1L13,7c0-0.3,0.1-0.6,0.3-0.8l0,0
		c0.2-0.2,0.5-0.4,0.8-0.4l8.8-0.4l0,0c0.3,0,0.6,0.1,0.8,0.3S24,6.1,24,6.4l0.4,8.8C24.5,15.8,24,16.4,23.3,16.4z M31,28.1
		l-8.4,2.5c-0.1,0-0.2,0-0.3,0c-0.2,0-0.4,0-0.5-0.1c-0.3-0.1-0.5-0.4-0.6-0.7l-2.5-8.4c-0.1-0.3-0.1-0.6,0.1-0.9
		c0.1-0.3,0.4-0.5,0.7-0.6l8.4-2.5c0.3-0.1,0.6-0.1,0.9,0.1c0.3,0.1,0.5,0.4,0.6,0.7l2.5,8.4C32,27.3,31.7,27.9,31,28.1L31,28.1z"/>
	<path class="st0" d="M18.7,8.1c0.1-0.1,0.2-0.3,0.2-0.4c0-0.2-0.1-0.3-0.2-0.4s-0.2-0.1-0.4-0.1l0,0l-2.6,0.1
		c-0.3,0-0.5,0.1-0.7,0.3c-0.2,0.2-0.3,0.4-0.2,0.7l0.1,2.6c0,0.3,0.3,0.6,0.6,0.6v0.3v-0.3c0.2,0,0.3-0.1,0.4-0.2
		C16,11.1,16,11,16,10.8l-0.1-2.4l2.4-0.1C18.5,8.3,18.6,8.2,18.7,8.1z"/>
	<path class="st0" d="M10.7,19.5c-0.1-0.1-0.2-0.2-0.4-0.2L7.6,19H7.5c-0.2,0-0.4,0.1-0.6,0.2c-0.2,0.2-0.3,0.4-0.3,0.6l-0.3,2.6
		c0,0.2,0,0.3,0.1,0.4S6.6,23,6.8,23l0,0c0.4,0,0.6-0.2,0.6-0.5l0.2-2.4l2.4,0.2c0.2,0,0.3,0,0.4-0.1c0.1-0.1,0.2-0.2,0.2-0.4
		C10.8,19.8,10.8,19.6,10.7,19.5z"/>
	<path class="st0" d="M24.7,20.8c0-0.1-0.1-0.3-0.3-0.3c-0.1,0-0.2-0.1-0.3-0.1c-0.1,0-0.1,0-0.2,0l0,0l-2.5,0.8
		c-0.5,0.2-0.8,0.7-0.6,1.2l0.8,2.5c0.1,0.3,0.4,0.5,0.7,0.4c0.1,0,0.3-0.1,0.3-0.3c0.1-0.1,0.1-0.3,0-0.4L22,22.2l2.3-0.7
		C24.7,21.4,24.8,21.1,24.7,20.8z"/>
</g>
</svg>
