<?xml version="1.0" encoding="utf-8"?>
<!-- Generator: Adobe Illustrator 21.0.0, SVG Export Plug-In . SVG Version: 6.00 Build 0)  -->
<svg version="1.1" id="Layer_1" xmlns="http://www.w3.org/2000/svg" xmlns:xlink="http://www.w3.org/1999/xlink" x="0px" y="0px"
	 viewBox="0 0 36 36" style="enable-background:new 0 0 36 36;" xml:space="preserve">
<style type="text/css">
	.st0{fill:#F18E00;}
</style>
<path class="st0" d="M7.2,30.1c2.9,1.6,6.8,2.5,11,2.5s8-0.9,11-2.5c3.1-1.7,4.8-4,4.8-6.4V23h-1.4l-0.1-0.2
	c-0.2-0.4-0.5-0.8-0.8-1.1c-0.5-0.5-1-0.8-1.6-1.1c-0.5-0.2-0.9-0.6-1.2-1.2c-0.3-0.6-0.6-1.2-1.1-1.6c-0.5-0.5-1-0.8-1.6-1.1
	c-0.5-0.2-0.9-0.6-1.2-1.2c-0.3-0.6-0.6-1.2-1.1-1.6l-0.5-0.5L22,14.8c-0.2,0.2-1.6,1.3-2.1,1.4h-0.1l-0.1-0.1
	c-0.4,0-0.5-0.1-0.7-0.1c-0.5-0.2-0.9-0.6-1.2-1.2c-0.2-0.5-0.5-0.9-0.8-1.3l-0.7-0.9c-0.2,0.2-0.4,0.4-0.7,0.7l-2.5,2.5l-0.3-0.2
	c-1.1-0.4-1.8-1.1-2.4-2.5c-0.2-0.3-0.4-0.5-0.6-0.8l-0.5-0.5L2.1,19l0.5,0.5c0.3,0.3,0.6,0.7,0.8,1.2c0.3,0.6,0.7,1.1,1.2,1.5
	l1,0.7H2.4v0.7C2.4,26.2,4.1,28.5,7.2,30.1z M23.2,15.4l0.3,0.7c0.4,0.9,1,1.5,1.9,1.9c0.4,0.2,0.9,0.5,1.2,0.8
	c0.3,0.3,0.6,0.7,0.8,1.2c0.4,0.9,1,1.5,1.9,1.9c0.3,0.1,0.5,0.2,0.7,0.4l1,0.7h-5.2l-0.1-0.2c0-0.1-0.1-0.1-0.1-0.2
	c-0.2-0.5-0.5-0.9-0.8-1.3c-0.1-0.1-0.2-0.3-0.3-0.4c-0.5-0.5-1-0.8-1.6-1.1c-0.3-0.1-0.6-0.3-0.8-0.6c-0.1-0.2-0.2-0.3-0.3-0.5
	c-0.1-0.3-0.3-0.6-0.5-0.9l-0.2-0.3L23.2,15.4z M16.2,14.6l0.3,0.5c0,0.1,0.1,0.1,0.1,0.2c0.4,0.9,1,1.5,1.9,1.9
	c0.4,0.2,0.9,0.5,1.2,0.8c0.3,0.3,0.6,0.7,0.8,1.2c0.4,0.9,1,1.5,1.9,1.9c0.4,0.2,0.9,0.5,1.2,0.8c0.1,0.1,0.1,0.1,0.2,0.2
	s0.1,0.2,0.2,0.2l0.4,0.6L20,23l-0.2-0.1c-0.3-0.1-0.6-0.3-0.8-0.6c-0.1-0.2-0.2-0.4-0.3-0.5c-0.3-0.6-0.6-1.2-1.1-1.6
	c-0.5-0.5-1-0.8-1.6-1.1c-0.5-0.2-0.9-0.6-1.2-1.2c-0.1-0.3-0.3-0.6-0.5-0.8l-0.2-0.3L16.2,14.6z M9.3,13.9l0.3,0.7
	c0.4,0.9,1,1.5,1.9,1.9c0.4,0.2,0.9,0.5,1.2,0.8s0.6,0.7,0.8,1.2c0.4,0.9,1,1.5,1.9,1.9c0.4,0.2,0.9,0.5,1.2,0.8
	c0.2,0.2,0.4,0.5,0.6,0.7c0.1,0.1,0.1,0.2,0.2,0.3c0,0.1,0.1,0.1,0.1,0.2l0.3,0.6h-3.5l-0.1-0.1c-0.4-0.3-0.8-0.5-1.2-0.7
	c-0.5-0.2-0.9-0.6-1.2-1.2s-0.6-1.2-1.1-1.6c-0.5-0.5-1-0.8-1.6-1.1c-0.5-0.2-0.9-0.6-1.2-1.2c-0.1-0.3-0.3-0.6-0.5-0.8L7.1,16
	L9.3,13.9z M4.7,20.3c-0.1-0.3-0.3-0.6-0.5-0.8L4,19.1L6.2,17l0.3,0.5c0,0.1,0.1,0.1,0.1,0.2c0.4,0.9,1,1.5,1.9,1.9
	c0.4,0.2,0.9,0.5,1.2,0.8s0.6,0.7,0.8,1.2c0.1,0.3,0.3,0.6,0.5,0.8l0.5,0.7H7.9L7.8,23c-0.1-0.1-0.2-0.3-0.3-0.4
	c-0.5-0.5-1-0.8-1.6-1.1C5.3,21.2,4.9,20.8,4.7,20.3z M3.8,24.4h28.8l-0.3,0.8c-1.1,3.4-7.2,6-14.2,6c-6.9,0-13-2.6-14.2-6L3.8,24.4
	z"/>
</svg>
