<?xml version="1.0" encoding="utf-8"?>
<!-- Generator: Adobe Illustrator 21.0.0, SVG Export Plug-In . SVG Version: 6.00 Build 0)  -->
<svg version="1.1" id="Layer_1" xmlns="http://www.w3.org/2000/svg" xmlns:xlink="http://www.w3.org/1999/xlink" x="0px" y="0px"
	 viewBox="0 0 36 36" style="enable-background:new 0 0 36 36;" xml:space="preserve">
<style type="text/css">
	.st0{fill:#F18E00;}
</style>
<g>
	<path class="st0" d="M3.2,15.5c-0.4,0-0.7,0.3-0.7,0.7v8.4c0,5.1,4.1,9.2,9.2,9.2h4.2c3.8,0,7.3-2.5,8.6-6.1l0.1-0.2h4
		c1.3,0,2.6-0.5,3.5-1.4c1-0.9,1.5-2.2,1.5-3.5c0-2.7-2.2-4.9-4.9-4.9h-3.5v-1.4c0-0.4-0.3-0.7-0.7-0.7L3.2,15.5L3.2,15.5z
		 M23.6,24.7c0,4.3-3.5,7.7-7.7,7.7h-4.2c-4.3,0-7.7-3.5-7.7-7.7V17h19.6C23.6,17,23.6,24.7,23.6,24.7z M25,25.4
		c0-0.2,0.1-0.5,0.1-0.7v-5.6h3.5c1.9,0,3.5,1.6,3.5,3.5c0,0.9-0.4,1.8-1,2.5s-1.5,1-2.5,1H25L25,25.4z"/>
	<path class="st0" d="M20.1,8.5c-0.8-1.4-0.3-2.1-0.2-2.3c0.3-0.3,0.3-0.7,0.1-1C19.9,5,19.7,5,19.5,4.9l0,0c-0.2,0-0.3,0.1-0.5,0.2
		s-1.6,1.5-0.2,4.1c0.8,1.3,0.3,2,0.2,2.2c-0.2,0.2-0.3,0.3-0.3,0.5s0.1,0.4,0.2,0.5c0.3,0.3,0.7,0.3,1,0.1
		C20,12.5,21.5,11.1,20.1,8.5z"/>
	<path class="st0" d="M13.8,7.4C13,6,13.5,5.3,13.6,5.1c0.3-0.3,0.3-0.7,0.1-1c-0.1-0.1-0.3-0.2-0.5-0.2l0,0c-0.2,0-0.3,0.1-0.5,0.2
		s-1.6,1.5-0.2,4.1c0.8,1.3,0.3,2,0.2,2.2c-0.2,0.2-0.3,0.3-0.3,0.5s0.1,0.4,0.2,0.5c0.3,0.3,0.7,0.3,1,0.1
		C13.7,11.4,15.2,9.9,13.8,7.4z"/>
	<path class="st0" d="M7,8.5C6.2,7,6.7,6.3,6.8,6.2c0.3-0.3,0.3-0.7,0.1-1C6.8,5,6.6,4.9,6.4,4.9l0,0C6.2,4.9,6,5,5.9,5.1
		C5.7,5.2,4.3,6.6,5.7,9.2c0.8,1.3,0.3,2,0.2,2.2c-0.3,0.3-0.4,0.8-0.1,1.1s0.7,0.3,1,0.1C6.9,12.5,8.4,11,7,8.5z"/>
</g>
</svg>
