<?xml version="1.0" encoding="utf-8"?>
<!-- Generator: Adobe Illustrator 21.0.0, SVG Export Plug-In . SVG Version: 6.00 Build 0)  -->
<svg version="1.1" id="Layer_1" xmlns="http://www.w3.org/2000/svg" xmlns:xlink="http://www.w3.org/1999/xlink" x="0px" y="0px"
	 viewBox="0 0 36 36" style="enable-background:new 0 0 36 36;" xml:space="preserve">
<style type="text/css">
	.st0{fill:#F18E00;}
</style>
<g>
	<path class="st0" d="M33.7,30.1c0.4-0.4,0.8-0.8,1.2-1.2c0.2-0.2,0.3-0.5,0.3-0.8s-0.2-0.6-0.5-0.8c-2.1-2-4.2-4-6.3-6.1L24.2,17
		c-2.7-2.6-5.3-5.1-8-7.7L15,8.1c-0.9-0.9-1.9-1.8-2.6-2.5l-1.2-1.1C10.6,3.9,10,3.3,9.4,2.7C8.9,2.3,8.3,2.2,7.7,2.5
		C7.2,2.7,7,3.1,7.1,3.7c0,0,0,0.2,0.3,0.6c0.8,1,1.2,1.3,1.2,1.3c0.2,0.2,22.5,23.6,23.6,24.7c0.3,0.3,0.6,0.3,1,0.2
		C33.4,30.4,33.6,30.2,33.7,30.1z M32.9,29.4L32.9,29.4c-0.1,0-0.2-0.1-0.3-0.2c-1.2-1.2-2.4-2.5-3.5-3.7L8.3,4.1L8.2,4
		C8,3.8,8,3.6,8.2,3.4c0.2-0.2,0.3-0.1,0.5,0C9,3.7,9.3,4,9.7,4.3c0.4,0.4,0.9,0.8,1.3,1.3c3.8,3.7,7.6,7.4,11.4,11l6.3,6.1
		c1.7,1.7,3.5,3.4,5.2,5c0,0.2,0.1,0.3,0.1,0.3s0,0,0.1,0l0,0l0,0c0,0.2-0.1,0.2-0.1,0.3l0,0c-0.1,0.1-0.2,0.2-0.3,0.3
		c-0.2,0.2-0.4,0.3-0.5,0.5C33,29.3,33,29.4,32.9,29.4z"/>
	<path class="st0" d="M6.8,7.3l-1-1.4c-0.4-0.5-0.7-1-1-1.4l-1-1.4C3.7,2.9,3.5,2.8,3.4,2.7C3.1,2.2,2.7,2,2.2,2
		C1.9,2,1.7,2.1,1.4,2.2c-0.7,0.5-0.8,1.3-0.3,2l0.2,0.3C2.1,5.7,2.9,6.9,3.7,8l0.9,1.4c0.5,0.7,0.9,1.4,1.4,2.1l0.7,1l1,1.5
		c4.1,6.1,8.3,12.4,12,17.7l0.1,0.2c0.4,0.6,0.8,1.2,1.2,1.7c0.3,0.4,0.8,0.5,1.2,0.3c0.7-0.4,1.3-0.8,1.8-1.2
		c0.3-0.3,0.4-0.7,0.1-1.1C23.7,31,23.4,30.5,23,30c-2.8-3.9-5.6-7.7-8.4-11.6L8.5,9.7C7.9,8.9,7.4,8.1,6.8,7.3z M23.1,31.6
		c0.1,0.1,0.1,0.2,0.1,0.3c0,0.1-0.1,0.2-0.2,0.2c-0.3,0.2-0.6,0.4-0.8,0.6c-0.1,0.1-0.2,0.1-0.3,0.1l0,0c-0.1,0-0.2-0.1-0.3-0.2
		c-1.6-2.4-3.3-4.9-4.9-7.2l-1.8-2.6C11.4,17.6,7.8,12.4,4.3,7.1L2.1,3.9c0,0,0-0.1-0.1-0.1c0,0-0.1-0.1-0.1-0.2
		c-0.1-0.1-0.1-0.3,0-0.4C2,3.1,2.1,3,2.2,3l0,0c0.2,0,0.3,0.1,0.4,0.3l0,0c0.7,0.9,1.3,1.8,2,2.7l4,5.6
		C13.5,18.3,18.3,25,23.1,31.6z"/>
</g>
</svg>
