<?xml version="1.0" encoding="utf-8"?>
<!-- Generator: Adobe Illustrator 21.0.0, SVG Export Plug-In . SVG Version: 6.00 Build 0)  -->
<svg version="1.1" id="Layer_1" xmlns="http://www.w3.org/2000/svg" xmlns:xlink="http://www.w3.org/1999/xlink" x="0px" y="0px"
	 viewBox="0 0 36 36" style="enable-background:new 0 0 36 36;" xml:space="preserve">
<style type="text/css">
	.st0{fill:#F18E00;}
</style>
<g>
	<path class="st0" d="M21.1,13.4c-0.6-0.3-1.4-0.5-2.4-0.7c-1.9-0.4-3.8-0.6-5.9-0.6c-1.2,0-2.5,0.1-3.8,0.2c-1.4,0.1-3,0.3-4.6,1
		c-1.1,0.5-1.4,1-1.4,2.2v8.1c0,0.2,0,0.3,0,0.4c0,1.2,0.4,2.8,1.9,3.7c1.2,0.7,1.7,1.6,1.6,3c-0.1,0.7,0.1,0.9,0.9,1.1
		c3,0.8,6.2,0.9,9.5,0.3c2-0.4,2-0.4,2-2.5c0-0.7,0.3-1.1,0.9-1.5c1.8-1,2.7-2.5,2.6-4.5c0-2.6,0-5.3,0-8.3
		C22.4,14.4,22,13.8,21.1,13.4z M16.7,30.8c-1.2,0.2-2.3,0.3-3.3,0.3c-0.2,0-0.4,0-0.6,0c-1.3,0-2.5,0-3.8-0.3
		c-0.1,0-0.3-0.1-0.4-0.1H8.5c-0.5-0.1-0.7-0.5-0.6-1c0.1-0.3,0.2-0.4,0.3-0.5c0.2-0.2,0.5-0.1,0.6-0.1c1.6,0.3,3,0.3,4.8,0.3
		c1,0,2-0.2,2.9-0.3c0.3-0.1,0.5-0.2,0.8,0c0.2,0.1,0.3,0.3,0.3,0.5C17.7,30.6,16.9,30.8,16.7,30.8z M21,24c0,1.2-0.5,2.2-1.6,2.9
		c-1.1,0.7-2.3,1.1-3.8,1.3c-1.1,0.1-2.1,0.2-3,0.2c-1.6,0-3-0.2-4.4-0.5c-0.4-0.1-0.9-0.3-1.4-0.5c-1.9-0.8-2.7-2.1-2.5-3.9
		c0.1-0.5,0-1.1,0-1.6c0-0.3,0-0.5,0-0.8v-0.8c0-0.9,0-1.8,0-2.6c0-0.3,0-0.6,0.3-0.8c0.3-0.2,0.6-0.2,0.8-0.1
		c4.7,1.1,9.6,1.1,14.4,0c0.3-0.1,0.7-0.1,0.9,0.1c0.3,0.2,0.3,0.6,0.3,0.8C21,19.6,21,21.8,21,24z M20.1,15.3c-2.5,0.7-5,1-7.6,1
		c-2.5,0-5-0.3-7.5-1l-0.9-0.2l0.7-0.5c2.3-1.6,12.7-1.6,15.4,0l0.9,0.5L20.1,15.3z"/>
	<path class="st0" d="M30.4,19.6c1.6-0.9,2.4-2.2,2.6-3.9c0-0.9,0-1.8,0-2.7c0-0.6,0-1.2,0-1.7V9.8c0-1.1,0-2,0-3
		c0-0.9-0.4-1.5-1.2-1.9c-0.6-0.3-1.3-0.5-2-0.7c-3.5-0.7-7.1-0.8-11-0.3c-1.3,0.2-2.6,0.4-3.8,1c-0.7,0.3-1.2,0.7-1.2,1.3
		c-0.1,1.1,0,2.2,0,3.6c0,0.4,0.3,0.5,0.6,0.5l0,0c0.3,0,0.5-0.2,0.6-0.5c0-0.1,0-0.3,0-0.5s-0.1-0.7,0.2-1c0.3-0.2,0.6,0,0.9,0.1
		c4.9,1.2,9.8,1.2,14.6,0c0.2,0,0.7-0.3,1-0.1c0.2,0.2,0.1,0.7,0.1,0.9c0,1,0,2.1,0,3.1c0,1.2,0,2.4,0,3.6c0,0.9-0.4,1.6-1.2,2.3
		c-1,0.8-2.1,1.2-3,1.4c-0.6,0.2-1.3,0.2-1.9,0.3c-0.3,0-0.6,0.1-0.9,0.1s-0.5,0.2-0.6,0.4c-0.1,0.2-0.1,0.4,0.1,0.6
		c0.1,0.2,0.3,0.3,0.6,0.3c0.7,0,1.4-0.1,2.1-0.2l0.4-0.1c0.1,0,0.2,0,0.3,0c0.5,0,0.6,0.3,0.7,0.5c0.1,0.4-0.1,0.8-0.5,1
		c-0.1,0.1-0.3,0.1-0.5,0.1c-0.8,0.1-1.6,0.2-2.3,0.3c-0.4,0-0.8,0.3-0.8,0.7c0,0.2,0.1,0.3,0.2,0.4c0.2,0.1,0.4,0.2,0.7,0.2
		c0.9-0.1,1.9-0.2,2.9-0.4c1.7-0.4,1.7-0.4,1.7-2.1v-0.1C29.3,20.3,29.9,19.8,30.4,19.6z M31,6.5c-1.1,0.8-4.4,1.3-7.6,1.3
		c-3.1,0-6.3-0.4-7.6-1.2l-0.9-0.5l1-0.3c4.9-1.3,9.8-1.3,15-0.1l0.9,0.2L31,6.5z"/>
</g>
</svg>
